<?xml version="1.0" encoding="iso-8859-1"?>
<!-- Generator: Adobe Illustrator 19.0.0, SVG Export Plug-In . SVG Version: 6.00 Build 0)  -->
<svg version="1.1" id="Layer_1" xmlns="http://www.w3.org/2000/svg" xmlns:xlink="http://www.w3.org/1999/xlink" x="0px" y="0px"
	 viewBox="0 0 512 512" style="enable-background:new 0 0 512 512;" xml:space="preserve">
<path style="fill:#CCE6FF;" d="M485.017,215.543c0,55.096-31.924,105.071-80.782,128.682v132.779
	c0,19.301-15.709,34.997-35.01,34.997H140.793c-19.301,0-35.01-15.696-35.01-34.997V345.515
	C84.619,334.9,66.436,319.23,52.695,299.597c-16.827-24.063-25.712-52.343-25.712-81.793c0-32.43,11.16-64.195,31.432-89.428
	c17.798-22.134,41.967-38.549,68.877-46.955c10.668-22.427,26.949-41.621,47.541-55.934c23.624-16.428,51.332-25.22,80.183-25.473
	C255.441,0,255.88,0,256.306,0c54.484,0,103.674,30.714,127.79,78.973c27.003,8.314,51.292,24.648,69.196,46.796
	C473.751,151.069,485.017,182.953,485.017,215.543z"/>
<path style="fill:#BDDEFF;" d="M485.017,215.543c0,55.096-31.924,105.071-80.782,128.682v132.779
	c0,19.301-15.709,34.997-35.01,34.997H255.016V0.013C255.441,0,255.88,0,256.306,0c54.484,0,103.674,30.714,127.79,78.973
	c27.003,8.314,51.292,24.648,69.196,46.796C473.751,151.069,485.017,182.953,485.017,215.543z"/>
<rect x="105.789" y="411.385" style="fill:#A6673A;" width="298.453" height="39.905"/>
<rect x="255.009" y="411.385" style="fill:#99522E;" width="149.233" height="39.905"/>
<g>
</g>
<g>
</g>
<g>
</g>
<g>
</g>
<g>
</g>
<g>
</g>
<g>
</g>
<g>
</g>
<g>
</g>
<g>
</g>
<g>
</g>
<g>
</g>
<g>
</g>
<g>
</g>
<g>
</g>
</svg>
